<svg xmlns="http://www.w3.org/2000/svg" xmlns:xlink="http://www.w3.org/1999/xlink" width="2000" zoomAndPan="magnify" viewBox="0 0 1500 1499.999933" height="2000" preserveAspectRatio="xMidYMid meet" version="1.0"><defs><g/><clipPath id="0670b515e8"><path d="M 97.9375 97.9375 L 1402.0625 97.9375 L 1402.0625 1402.0625 L 97.9375 1402.0625 Z M 97.9375 97.9375 " clip-rule="nonzero"/></clipPath><clipPath id="1bd7c42c11"><path d="M 750 97.9375 C 389.875 97.9375 97.9375 389.875 97.9375 750 C 97.9375 1110.125 389.875 1402.0625 750 1402.0625 C 1110.125 1402.0625 1402.0625 1110.125 1402.0625 750 C 1402.0625 389.875 1110.125 97.9375 750 97.9375 Z M 750 97.9375 " clip-rule="nonzero"/></clipPath><clipPath id="f7cf096e75"><path d="M 0.9375 0.9375 L 1305.0625 0.9375 L 1305.0625 1305.0625 L 0.9375 1305.0625 Z M 0.9375 0.9375 " clip-rule="nonzero"/></clipPath><clipPath id="fecfcc284b"><path d="M 653 0.9375 C 292.875 0.9375 0.9375 292.875 0.9375 653 C 0.9375 1013.125 292.875 1305.0625 653 1305.0625 C 1013.125 1305.0625 1305.0625 1013.125 1305.0625 653 C 1305.0625 292.875 1013.125 0.9375 653 0.9375 Z M 653 0.9375 " clip-rule="nonzero"/></clipPath><linearGradient x1="0" gradientTransform="matrix(5.094235, 0, 0, 5.094235, 0.937867, 0.937813)" y1="128" x2="255.999992" gradientUnits="userSpaceOnUse" y2="128" id="735f5bfb6a"><stop stop-opacity="1" stop-color="rgb(23.529053%, 3.529358%, 42.349243%)" offset="0"/><stop stop-opacity="1" stop-color="rgb(23.416138%, 3.529358%, 42.349243%)" offset="0.015625"/><stop stop-opacity="1" stop-color="rgb(23.188782%, 3.529358%, 42.349243%)" offset="0.03125"/><stop stop-opacity="1" stop-color="rgb(22.961426%, 3.529358%, 42.349243%)" offset="0.046875"/><stop stop-opacity="1" stop-color="rgb(22.735596%, 3.529358%, 42.349243%)" offset="0.0625"/><stop stop-opacity="1" stop-color="rgb(22.50824%, 3.529358%, 42.349243%)" offset="0.078125"/><stop stop-opacity="1" stop-color="rgb(22.28241%, 3.529358%, 42.349243%)" offset="0.09375"/><stop stop-opacity="1" stop-color="rgb(22.055054%, 3.529358%, 42.349243%)" offset="0.109375"/><stop stop-opacity="1" stop-color="rgb(21.827698%, 3.529358%, 42.349243%)" offset="0.125"/><stop stop-opacity="1" stop-color="rgb(21.601868%, 3.529358%, 42.349243%)" offset="0.140625"/><stop stop-opacity="1" stop-color="rgb(21.374512%, 3.529358%, 42.349243%)" offset="0.15625"/><stop stop-opacity="1" stop-color="rgb(21.148682%, 3.529358%, 42.349243%)" offset="0.171875"/><stop stop-opacity="1" stop-color="rgb(20.921326%, 3.529358%, 42.349243%)" offset="0.1875"/><stop stop-opacity="1" stop-color="rgb(20.695496%, 3.529358%, 42.349243%)" offset="0.203125"/><stop stop-opacity="1" stop-color="rgb(20.46814%, 3.529358%, 42.349243%)" offset="0.21875"/><stop stop-opacity="1" stop-color="rgb(20.240784%, 3.529358%, 42.349243%)" offset="0.234375"/><stop stop-opacity="1" stop-color="rgb(20.014954%, 3.529358%, 42.349243%)" offset="0.25"/><stop stop-opacity="1" stop-color="rgb(19.787598%, 3.529358%, 42.349243%)" offset="0.265625"/><stop stop-opacity="1" stop-color="rgb(19.561768%, 3.529358%, 42.349243%)" offset="0.28125"/><stop stop-opacity="1" stop-color="rgb(19.334412%, 3.529358%, 42.349243%)" offset="0.296875"/><stop stop-opacity="1" stop-color="rgb(19.107056%, 3.529358%, 42.349243%)" offset="0.3125"/><stop stop-opacity="1" stop-color="rgb(18.881226%, 3.529358%, 42.349243%)" offset="0.328125"/><stop stop-opacity="1" stop-color="rgb(18.65387%, 3.529358%, 42.349243%)" offset="0.34375"/><stop stop-opacity="1" stop-color="rgb(18.42804%, 3.529358%, 42.349243%)" offset="0.359375"/><stop stop-opacity="1" stop-color="rgb(18.200684%, 3.529358%, 42.349243%)" offset="0.375"/><stop stop-opacity="1" stop-color="rgb(17.974854%, 3.529358%, 42.349243%)" offset="0.390625"/><stop stop-opacity="1" stop-color="rgb(17.747498%, 3.529358%, 42.349243%)" offset="0.40625"/><stop stop-opacity="1" stop-color="rgb(17.520142%, 3.529358%, 42.349243%)" offset="0.421875"/><stop stop-opacity="1" stop-color="rgb(17.294312%, 3.529358%, 42.349243%)" offset="0.4375"/><stop stop-opacity="1" stop-color="rgb(17.066956%, 3.529358%, 42.349243%)" offset="0.453125"/><stop stop-opacity="1" stop-color="rgb(16.841125%, 3.529358%, 42.349243%)" offset="0.46875"/><stop stop-opacity="1" stop-color="rgb(16.61377%, 3.529358%, 42.349243%)" offset="0.484375"/><stop stop-opacity="1" stop-color="rgb(16.386414%, 3.529358%, 42.349243%)" offset="0.5"/><stop stop-opacity="1" stop-color="rgb(16.160583%, 3.529358%, 42.349243%)" offset="0.515625"/><stop stop-opacity="1" stop-color="rgb(15.933228%, 3.529358%, 42.349243%)" offset="0.53125"/><stop stop-opacity="1" stop-color="rgb(15.707397%, 3.529358%, 42.349243%)" offset="0.546875"/><stop stop-opacity="1" stop-color="rgb(15.480042%, 3.529358%, 42.349243%)" offset="0.5625"/><stop stop-opacity="1" stop-color="rgb(15.254211%, 3.529358%, 42.349243%)" offset="0.578125"/><stop stop-opacity="1" stop-color="rgb(15.026855%, 3.529358%, 42.349243%)" offset="0.59375"/><stop stop-opacity="1" stop-color="rgb(14.7995%, 3.529358%, 42.349243%)" offset="0.609375"/><stop stop-opacity="1" stop-color="rgb(14.573669%, 3.529358%, 42.349243%)" offset="0.625"/><stop stop-opacity="1" stop-color="rgb(14.346313%, 3.529358%, 42.349243%)" offset="0.640625"/><stop stop-opacity="1" stop-color="rgb(14.120483%, 3.529358%, 42.349243%)" offset="0.65625"/><stop stop-opacity="1" stop-color="rgb(13.893127%, 3.529358%, 42.349243%)" offset="0.671875"/><stop stop-opacity="1" stop-color="rgb(13.665771%, 3.529358%, 42.349243%)" offset="0.6875"/><stop stop-opacity="1" stop-color="rgb(13.439941%, 3.529358%, 42.349243%)" offset="0.703125"/><stop stop-opacity="1" stop-color="rgb(13.212585%, 3.529358%, 42.349243%)" offset="0.71875"/><stop stop-opacity="1" stop-color="rgb(12.986755%, 3.529358%, 42.349243%)" offset="0.734375"/><stop stop-opacity="1" stop-color="rgb(12.759399%, 3.529358%, 42.349243%)" offset="0.75"/><stop stop-opacity="1" stop-color="rgb(12.533569%, 3.529358%, 42.349243%)" offset="0.765625"/><stop stop-opacity="1" stop-color="rgb(12.306213%, 3.529358%, 42.349243%)" offset="0.78125"/><stop stop-opacity="1" stop-color="rgb(12.078857%, 3.529358%, 42.349243%)" offset="0.796875"/><stop stop-opacity="1" stop-color="rgb(11.853027%, 3.529358%, 42.349243%)" offset="0.8125"/><stop stop-opacity="1" stop-color="rgb(11.625671%, 3.529358%, 42.349243%)" offset="0.828125"/><stop stop-opacity="1" stop-color="rgb(11.399841%, 3.529358%, 42.349243%)" offset="0.84375"/><stop stop-opacity="1" stop-color="rgb(11.172485%, 3.529358%, 42.349243%)" offset="0.859375"/><stop stop-opacity="1" stop-color="rgb(10.946655%, 3.529358%, 42.349243%)" offset="0.875"/><stop stop-opacity="1" stop-color="rgb(10.719299%, 3.529358%, 42.349243%)" offset="0.890625"/><stop stop-opacity="1" stop-color="rgb(10.491943%, 3.529358%, 42.349243%)" offset="0.90625"/><stop stop-opacity="1" stop-color="rgb(10.266113%, 3.529358%, 42.349243%)" offset="0.921875"/><stop stop-opacity="1" stop-color="rgb(10.038757%, 3.529358%, 42.349243%)" offset="0.9375"/><stop stop-opacity="1" stop-color="rgb(9.812927%, 3.529358%, 42.349243%)" offset="0.953125"/><stop stop-opacity="1" stop-color="rgb(9.585571%, 3.529358%, 42.349243%)" offset="0.96875"/><stop stop-opacity="1" stop-color="rgb(9.358215%, 3.529358%, 42.349243%)" offset="0.984375"/><stop stop-opacity="1" stop-color="rgb(9.132385%, 3.529358%, 42.349243%)" offset="1"/></linearGradient><clipPath id="3001f5cea5"><rect x="0" width="1306" y="0" height="1306"/></clipPath><clipPath id="915ead1c5a"><path d="M 505 127 L 787 127 L 787 412 L 505 412 Z M 505 127 " clip-rule="nonzero"/></clipPath><clipPath id="bd7ac6c03c"><path d="M 846.035156 317.519531 L 597.421875 467.949219 L 449.167969 222.929688 L 697.78125 72.5 Z M 846.035156 317.519531 " clip-rule="nonzero"/></clipPath><clipPath id="020e31c8a7"><path d="M 846.035156 317.519531 L 597.421875 467.949219 L 449.167969 222.929688 L 697.78125 72.5 Z M 846.035156 317.519531 " clip-rule="nonzero"/></clipPath><clipPath id="d928eaddf9"><rect x="0" width="930" y="0" height="1218"/></clipPath></defs><g clip-path="url(#0670b515e8)"><g clip-path="url(#1bd7c42c11)"><g transform="matrix(1, 0, 0, 1, 97, 97)"><g clip-path="url(#3001f5cea5)"><g clip-path="url(#f7cf096e75)"><g clip-path="url(#fecfcc284b)"><path fill="url(#735f5bfb6a)" d="M 0.9375 0.9375 L 0.9375 1305.0625 L 1305.0625 1305.0625 L 1305.0625 0.9375 Z M 0.9375 0.9375 " fill-rule="nonzero"/></g></g></g></g></g></g><g transform="matrix(1, 0, 0, 1, 279, 141)"><g clip-path="url(#d928eaddf9)"><g fill="#ffffff" fill-opacity="1"><g transform="translate(0.316615, 955.849554)"><g><path d="M 494.5 0 L 26.1875 0 L 26.1875 -111.296875 L 346.109375 -523.296875 L 343.046875 -532.453125 L 38.84375 -532.453125 L 38.84375 -638.078125 L 491.453125 -638.078125 L 491.453125 -526.78125 L 171.53125 -114.78125 L 174.578125 -105.625 L 494.5 -105.625 Z M 494.5 0 "/></g></g></g><g fill="#ffffff" fill-opacity="1"><g transform="translate(424.909113, 955.849554)"><g><path d="M 209.0625 -638.078125 L 209.0625 -105.625 L 495.8125 -105.625 L 495.8125 0 L 82.921875 0 L 82.921875 -638.078125 Z M 209.0625 -638.078125 "/></g></g></g><g clip-path="url(#915ead1c5a)"><g clip-path="url(#bd7ac6c03c)"><g clip-path="url(#020e31c8a7)"><path fill="#ffffff" d="M 518.757812 306.929688 C 516.503906 267.707031 536 230.714844 569.546875 210.414062 C 619.390625 180.253906 684.496094 196.273438 714.652344 246.117188 C 744.8125 295.960938 728.796875 361.066406 678.949219 391.226562 C 672.390625 395.195312 665.445312 398.4375 658.285156 400.855469 L 626.316406 411.742188 L 659.949219 408.359375 C 703.09375 404.011719 741.191406 380.621094 764.496094 344.140625 C 784.722656 312.457031 791.507812 274.753906 783.613281 238.046875 C 775.667969 201.253906 753.921875 169.878906 722.300781 149.667969 C 690.679688 129.453125 652.933594 122.871094 616.050781 131.039062 C 600.785156 134.414062 586.367188 140.207031 573.203125 148.171875 C 554.675781 159.378906 539.316406 174.425781 527.515625 192.839844 C 505.632812 227.105469 499.636719 269.175781 511.164062 308.253906 L 520.679688 340.660156 Z M 534.066406 197.050781 C 553.160156 167.121094 582.882812 146.375 617.722656 138.652344 C 652.605469 130.902344 688.226562 137.140625 718.117188 156.257812 C 747.996094 175.269531 768.542969 204.941406 776 239.71875 C 783.472656 274.429688 777.066406 310.042969 757.929688 339.996094 C 746.828125 357.425781 732.308594 371.621094 714.8125 382.207031 C 706.4375 387.277344 697.527344 391.371094 688.257812 394.5 C 737.601562 360.808594 752.605469 293.839844 721.320312 242.140625 C 688.941406 188.625 619.070312 171.433594 565.550781 203.8125 C 538.527344 220.167969 520.003906 246.199219 513.425781 276.503906 C 511.757812 248.59375 518.910156 220.820312 534.066406 197.050781 Z M 534.066406 197.050781 " fill-opacity="1" fill-rule="nonzero"/></g></g></g></g></g></svg>